<?xml version="1.0" encoding="UTF-8"?>
<?xml-stylesheet href="https://cdnjs.cloudflare.com/ajax/libs/font-awesome/6.6.0/css/all.min.css" type="text/css"?>
<svg aria-roledescription="xychart" role="graphics-document document" viewBox="0 0 700 500" style="max-width: 100%;" xmlns="http://www.w3.org/2000/svg" width="100%" id="graph-div" height="100%" xmlns:xlink="http://www.w3.org/1999/xlink"><style>#graph-div{font-family:"trebuchet ms",verdana,arial,sans-serif;font-size:16px;fill:#ccc;}#graph-div .error-icon{fill:#a44141;}#graph-div .error-text{fill:#ddd;stroke:#ddd;}#graph-div .edge-thickness-normal{stroke-width:1px;}#graph-div .edge-thickness-thick{stroke-width:3.5px;}#graph-div .edge-pattern-solid{stroke-dasharray:0;}#graph-div .edge-thickness-invisible{stroke-width:0;fill:none;}#graph-div .edge-pattern-dashed{stroke-dasharray:3;}#graph-div .edge-pattern-dotted{stroke-dasharray:2;}#graph-div .marker{fill:lightgrey;stroke:lightgrey;}#graph-div .marker.cross{stroke:lightgrey;}#graph-div svg{font-family:"trebuchet ms",verdana,arial,sans-serif;font-size:16px;}#graph-div p{margin:0;}#graph-div :root{--mermaid-font-family:"trebuchet ms",verdana,arial,sans-serif;}</style><g></g><g class="main"><rect fill="#333" class="background" height="500" width="700"></rect><g class="chart-title"><text transform="translate(350, 22) rotate(0)" text-anchor="middle" dominant-baseline="middle" font-size="20" fill="#e0dfdf" y="0" x="0">English Letter Frequency</text></g><g class="plot"><g class="bar-plot-0"><rect stroke-width="0" stroke="#3498db" fill="#3498db" height="13.811538461538461" width="384.84916381835933" y="107.09423076923076" x="28.666671752929688"></rect><rect stroke-width="0" stroke="#3498db" fill="#3498db" height="13.811538461538461" width="292.38606439208985" y="122.21423076923077" x="28.666671752929688"></rect><rect stroke-width="0" stroke="#3498db" fill="#3498db" height="13.811538461538461" width="257.9583146057129" y="137.33423076923077" x="28.666671752929688"></rect><rect stroke-width="0" stroke="#3498db" fill="#3498db" height="13.811538461538461" width="243.53144802856445" y="152.45423076923078" x="28.666671752929688"></rect><rect stroke-width="0" stroke="#3498db" fill="#3498db" height="13.811538461538461" width="224.51421481323243" y="167.57423076923075" x="28.666671752929688"></rect><rect stroke-width="0" stroke="#3498db" fill="#3498db" height="13.811538461538461" width="221.23538150024413" y="182.69423076923076" x="28.666671752929688"></rect><rect stroke-width="0" stroke="#3498db" fill="#3498db" height="13.811538461538461" width="193.36529833984375" y="197.81423076923076" x="28.666671752929688"></rect><rect stroke-width="0" stroke="#3498db" fill="#3498db" height="13.811538461538461" width="176.6432484436035" y="212.93423076923074" x="28.666671752929688"></rect><rect stroke-width="0" stroke="#3498db" fill="#3498db" height="13.811538461538461" width="173.0365317993164" y="228.05423076923074" x="28.666671752929688"></rect><rect stroke-width="0" stroke="#3498db" fill="#3498db" height="13.811538461538461" width="136.96936535644534" y="243.17423076923075" x="28.666671752929688"></rect><rect stroke-width="0" stroke="#3498db" fill="#3498db" height="13.811538461538461" width="121.55884878540039" y="258.29423076923075" x="28.666671752929688"></rect><rect stroke-width="0" stroke="#3498db" fill="#3498db" height="13.811538461538461" width="106.80409887695313" y="273.41423076923076" x="28.666671752929688"></rect><rect stroke-width="0" stroke="#3498db" fill="#3498db" height="13.811538461538461" width="89.09839898681642" y="288.53423076923076" x="28.666671752929688"></rect><rect stroke-width="0" stroke="#3498db" fill="#3498db" height="13.811538461538461" width="88.44263232421875" y="303.65423076923076" x="28.666671752929688"></rect><rect stroke-width="0" stroke="#3498db" fill="#3498db" height="13.811538461538461" width="81.55708236694336" y="318.7742307692307" x="28.666671752929688"></rect><rect stroke-width="0" stroke="#3498db" fill="#3498db" height="13.811538461538461" width="78.60613238525391" y="333.8942307692307" x="28.666671752929688"></rect><rect stroke-width="0" stroke="#3498db" fill="#3498db" height="13.811538461538461" width="73.35999908447266" y="349.0142307692307" x="28.666671752929688"></rect><rect stroke-width="0" stroke="#3498db" fill="#3498db" height="13.811538461538461" width="71.3926990966797" y="364.1342307692307" x="28.666671752929688"></rect><rect stroke-width="0" stroke="#3498db" fill="#3498db" height="13.811538461538461" width="57.621599182128904" y="379.25423076923073" x="28.666671752929688"></rect><rect stroke-width="0" stroke="#3498db" fill="#3498db" height="13.811538461538461" width="55.32641586303711" y="394.37423076923073" x="28.666671752929688"></rect><rect stroke-width="0" stroke="#3498db" fill="#3498db" height="13.811538461538461" width="41.88319927978516" y="409.49423076923074" x="28.666671752929688"></rect><rect stroke-width="0" stroke="#3498db" fill="#3498db" height="13.811538461538461" width="37.94859930419922" y="424.61423076923074" x="28.666671752929688"></rect><rect stroke-width="0" stroke="#3498db" fill="#3498db" height="13.811538461538461" width="12.701582794189456" y="439.73423076923075" x="28.666671752929688"></rect><rect stroke-width="0" stroke="#3498db" fill="#3498db" height="13.811538461538461" width="11.71793280029297" y="454.85423076923075" x="28.666671752929688"></rect><rect stroke-width="0" stroke="#3498db" fill="#3498db" height="13.811538461538461" width="10.07851614379883" y="469.97423076923076" x="28.666671752929688"></rect><rect stroke-width="0" stroke="#3498db" fill="#3498db" height="13.811538461538461" width="10.07851614379883" y="485.09423076923076" x="28.666671752929688"></rect></g></g><g class="left-axis"><g class="axisl-line"><path stroke-width="2" stroke="#e0dfdf" fill="none" d="M 27.666671752929688,106 L 27.666671752929688,500"></path></g><g class="label"><text transform="translate(16.666671752929688, 114) rotate(0)" text-anchor="end" dominant-baseline="middle" font-size="14" fill="#e0dfdf" y="0" x="0">e</text><text transform="translate(16.666671752929688, 129.12) rotate(0)" text-anchor="end" dominant-baseline="middle" font-size="14" fill="#e0dfdf" y="0" x="0">t</text><text transform="translate(16.666671752929688, 144.24) rotate(0)" text-anchor="end" dominant-baseline="middle" font-size="14" fill="#e0dfdf" y="0" x="0">o</text><text transform="translate(16.666671752929688, 159.36) rotate(0)" text-anchor="end" dominant-baseline="middle" font-size="14" fill="#e0dfdf" y="0" x="0">a</text><text transform="translate(16.666671752929688, 174.48) rotate(0)" text-anchor="end" dominant-baseline="middle" font-size="14" fill="#e0dfdf" y="0" x="0">i</text><text transform="translate(16.666671752929688, 189.6) rotate(0)" text-anchor="end" dominant-baseline="middle" font-size="14" fill="#e0dfdf" y="0" x="0">n</text><text transform="translate(16.666671752929688, 204.72) rotate(0)" text-anchor="end" dominant-baseline="middle" font-size="14" fill="#e0dfdf" y="0" x="0">s</text><text transform="translate(16.666671752929688, 219.83999999999997) rotate(0)" text-anchor="end" dominant-baseline="middle" font-size="14" fill="#e0dfdf" y="0" x="0">r</text><text transform="translate(16.666671752929688, 234.95999999999998) rotate(0)" text-anchor="end" dominant-baseline="middle" font-size="14" fill="#e0dfdf" y="0" x="0">h</text><text transform="translate(16.666671752929688, 250.07999999999998) rotate(0)" text-anchor="end" dominant-baseline="middle" font-size="14" fill="#e0dfdf" y="0" x="0">l</text><text transform="translate(16.666671752929688, 265.2) rotate(0)" text-anchor="end" dominant-baseline="middle" font-size="14" fill="#e0dfdf" y="0" x="0">d</text><text transform="translate(16.666671752929688, 280.32) rotate(0)" text-anchor="end" dominant-baseline="middle" font-size="14" fill="#e0dfdf" y="0" x="0">u</text><text transform="translate(16.666671752929688, 295.44) rotate(0)" text-anchor="end" dominant-baseline="middle" font-size="14" fill="#e0dfdf" y="0" x="0">y</text><text transform="translate(16.666671752929688, 310.56) rotate(0)" text-anchor="end" dominant-baseline="middle" font-size="14" fill="#e0dfdf" y="0" x="0">m</text><text transform="translate(16.666671752929688, 325.67999999999995) rotate(0)" text-anchor="end" dominant-baseline="middle" font-size="14" fill="#e0dfdf" y="0" x="0">w</text><text transform="translate(16.666671752929688, 340.79999999999995) rotate(0)" text-anchor="end" dominant-baseline="middle" font-size="14" fill="#e0dfdf" y="0" x="0">c</text><text transform="translate(16.666671752929688, 355.91999999999996) rotate(0)" text-anchor="end" dominant-baseline="middle" font-size="14" fill="#e0dfdf" y="0" x="0">g</text><text transform="translate(16.666671752929688, 371.03999999999996) rotate(0)" text-anchor="end" dominant-baseline="middle" font-size="14" fill="#e0dfdf" y="0" x="0">f</text><text transform="translate(16.666671752929688, 386.15999999999997) rotate(0)" text-anchor="end" dominant-baseline="middle" font-size="14" fill="#e0dfdf" y="0" x="0">p</text><text transform="translate(16.666671752929688, 401.28) rotate(0)" text-anchor="end" dominant-baseline="middle" font-size="14" fill="#e0dfdf" y="0" x="0">b</text><text transform="translate(16.666671752929688, 416.4) rotate(0)" text-anchor="end" dominant-baseline="middle" font-size="14" fill="#e0dfdf" y="0" x="0">v</text><text transform="translate(16.666671752929688, 431.52) rotate(0)" text-anchor="end" dominant-baseline="middle" font-size="14" fill="#e0dfdf" y="0" x="0">k</text><text transform="translate(16.666671752929688, 446.64) rotate(0)" text-anchor="end" dominant-baseline="middle" font-size="14" fill="#e0dfdf" y="0" x="0">j</text><text transform="translate(16.666671752929688, 461.76) rotate(0)" text-anchor="end" dominant-baseline="middle" font-size="14" fill="#e0dfdf" y="0" x="0">x</text><text transform="translate(16.666671752929688, 476.88) rotate(0)" text-anchor="end" dominant-baseline="middle" font-size="14" fill="#e0dfdf" y="0" x="0">z</text><text transform="translate(16.666671752929688, 492) rotate(0)" text-anchor="end" dominant-baseline="middle" font-size="14" fill="#e0dfdf" y="0" x="0">q</text></g><g class="ticks"><path stroke-width="2" stroke="#e0dfdf" fill="none" d="M 26.666671752929688,114 L 21.666671752929688,114"></path><path stroke-width="2" stroke="#e0dfdf" fill="none" d="M 26.666671752929688,129.12 L 21.666671752929688,129.12"></path><path stroke-width="2" stroke="#e0dfdf" fill="none" d="M 26.666671752929688,144.24 L 21.666671752929688,144.24"></path><path stroke-width="2" stroke="#e0dfdf" fill="none" d="M 26.666671752929688,159.36 L 21.666671752929688,159.36"></path><path stroke-width="2" stroke="#e0dfdf" fill="none" d="M 26.666671752929688,174.48 L 21.666671752929688,174.48"></path><path stroke-width="2" stroke="#e0dfdf" fill="none" d="M 26.666671752929688,189.6 L 21.666671752929688,189.6"></path><path stroke-width="2" stroke="#e0dfdf" fill="none" d="M 26.666671752929688,204.72 L 21.666671752929688,204.72"></path><path stroke-width="2" stroke="#e0dfdf" fill="none" d="M 26.666671752929688,219.83999999999997 L 21.666671752929688,219.83999999999997"></path><path stroke-width="2" stroke="#e0dfdf" fill="none" d="M 26.666671752929688,234.95999999999998 L 21.666671752929688,234.95999999999998"></path><path stroke-width="2" stroke="#e0dfdf" fill="none" d="M 26.666671752929688,250.07999999999998 L 21.666671752929688,250.07999999999998"></path><path stroke-width="2" stroke="#e0dfdf" fill="none" d="M 26.666671752929688,265.2 L 21.666671752929688,265.2"></path><path stroke-width="2" stroke="#e0dfdf" fill="none" d="M 26.666671752929688,280.32 L 21.666671752929688,280.32"></path><path stroke-width="2" stroke="#e0dfdf" fill="none" d="M 26.666671752929688,295.44 L 21.666671752929688,295.44"></path><path stroke-width="2" stroke="#e0dfdf" fill="none" d="M 26.666671752929688,310.56 L 21.666671752929688,310.56"></path><path stroke-width="2" stroke="#e0dfdf" fill="none" d="M 26.666671752929688,325.67999999999995 L 21.666671752929688,325.67999999999995"></path><path stroke-width="2" stroke="#e0dfdf" fill="none" d="M 26.666671752929688,340.79999999999995 L 21.666671752929688,340.79999999999995"></path><path stroke-width="2" stroke="#e0dfdf" fill="none" d="M 26.666671752929688,355.91999999999996 L 21.666671752929688,355.91999999999996"></path><path stroke-width="2" stroke="#e0dfdf" fill="none" d="M 26.666671752929688,371.03999999999996 L 21.666671752929688,371.03999999999996"></path><path stroke-width="2" stroke="#e0dfdf" fill="none" d="M 26.666671752929688,386.15999999999997 L 21.666671752929688,386.15999999999997"></path><path stroke-width="2" stroke="#e0dfdf" fill="none" d="M 26.666671752929688,401.28 L 21.666671752929688,401.28"></path><path stroke-width="2" stroke="#e0dfdf" fill="none" d="M 26.666671752929688,416.4 L 21.666671752929688,416.4"></path><path stroke-width="2" stroke="#e0dfdf" fill="none" d="M 26.666671752929688,431.52 L 21.666671752929688,431.52"></path><path stroke-width="2" stroke="#e0dfdf" fill="none" d="M 26.666671752929688,446.64 L 21.666671752929688,446.64"></path><path stroke-width="2" stroke="#e0dfdf" fill="none" d="M 26.666671752929688,461.76 L 21.666671752929688,461.76"></path><path stroke-width="2" stroke="#e0dfdf" fill="none" d="M 26.666671752929688,476.88 L 21.666671752929688,476.88"></path><path stroke-width="2" stroke="#e0dfdf" fill="none" d="M 26.666671752929688,492 L 21.666671752929688,492"></path></g></g><g class="top-axis"><g class="axis-line"><path stroke-width="2" stroke="#e0dfdf" fill="none" d="M 28.666671752929688,105 L 700,105"></path></g><g class="label"><text transform="translate(36.45000457763672, 78) rotate(0)" text-anchor="middle" dominant-baseline="text-before-edge" font-size="14" fill="#e0dfdf" y="0" x="0">0</text><text transform="translate(102.02667083740235, 78) rotate(0)" text-anchor="middle" dominant-baseline="text-before-edge" font-size="14" fill="#e0dfdf" y="0" x="0">2</text><text transform="translate(167.60333709716798, 78) rotate(0)" text-anchor="middle" dominant-baseline="text-before-edge" font-size="14" fill="#e0dfdf" y="0" x="0">4</text><text transform="translate(233.18000335693358, 78) rotate(0)" text-anchor="middle" dominant-baseline="text-before-edge" font-size="14" fill="#e0dfdf" y="0" x="0">6</text><text transform="translate(298.75666961669924, 78) rotate(0)" text-anchor="middle" dominant-baseline="text-before-edge" font-size="14" fill="#e0dfdf" y="0" x="0">8</text><text transform="translate(364.33333587646484, 78) rotate(0)" text-anchor="middle" dominant-baseline="text-before-edge" font-size="14" fill="#e0dfdf" y="0" x="0">10</text><text transform="translate(429.91000213623045, 78) rotate(0)" text-anchor="middle" dominant-baseline="text-before-edge" font-size="14" fill="#e0dfdf" y="0" x="0">12</text><text transform="translate(495.48666839599605, 78) rotate(0)" text-anchor="middle" dominant-baseline="text-before-edge" font-size="14" fill="#e0dfdf" y="0" x="0">14</text><text transform="translate(561.0633346557618, 78) rotate(0)" text-anchor="middle" dominant-baseline="text-before-edge" font-size="14" fill="#e0dfdf" y="0" x="0">16</text><text transform="translate(626.6400009155274, 78) rotate(0)" text-anchor="middle" dominant-baseline="text-before-edge" font-size="14" fill="#e0dfdf" y="0" x="0">18</text><text transform="translate(692.216667175293, 78) rotate(0)" text-anchor="middle" dominant-baseline="text-before-edge" font-size="14" fill="#e0dfdf" y="0" x="0">20</text></g><g class="ticks"><path stroke-width="2" stroke="#e0dfdf" fill="none" d="M 36.45000457763672,104 L 36.45000457763672,99"></path><path stroke-width="2" stroke="#e0dfdf" fill="none" d="M 102.02667083740235,104 L 102.02667083740235,99"></path><path stroke-width="2" stroke="#e0dfdf" fill="none" d="M 167.60333709716798,104 L 167.60333709716798,99"></path><path stroke-width="2" stroke="#e0dfdf" fill="none" d="M 233.18000335693358,104 L 233.18000335693358,99"></path><path stroke-width="2" stroke="#e0dfdf" fill="none" d="M 298.75666961669924,104 L 298.75666961669924,99"></path><path stroke-width="2" stroke="#e0dfdf" fill="none" d="M 364.33333587646484,104 L 364.33333587646484,99"></path><path stroke-width="2" stroke="#e0dfdf" fill="none" d="M 429.91000213623045,104 L 429.91000213623045,99"></path><path stroke-width="2" stroke="#e0dfdf" fill="none" d="M 495.48666839599605,104 L 495.48666839599605,99"></path><path stroke-width="2" stroke="#e0dfdf" fill="none" d="M 561.0633346557618,104 L 561.0633346557618,99"></path><path stroke-width="2" stroke="#e0dfdf" fill="none" d="M 626.6400009155274,104 L 626.6400009155274,99"></path><path stroke-width="2" stroke="#e0dfdf" fill="none" d="M 692.216667175293,104 L 692.216667175293,99"></path></g><g class="title"><text transform="translate(364.33333587646484, 49) rotate(0)" text-anchor="middle" dominant-baseline="text-before-edge" font-size="16" fill="#e0dfdf" y="0" x="0">Frequency (%)</text></g></g></g><g class="mermaid-tmp-group"></g></svg>